<svg xmlns="http://www.w3.org/2000/svg" width="24" height="24" viewBox="0 0 24 24">
    <g fill="none" fill-rule="evenodd">
        <g>
            <g>
                <g>
                    <g>
                        <path d="M0 0H24V24H0z" transform="translate(-335 -150) translate(0 137) translate(16 13) translate(319)"/>
                        <path fill="#FF8303" d="M12 22c1.827 0 3.518-.457 5.072-1.37 1.507-.866 2.692-2.051 3.558-3.558C21.543 15.518 22 13.827 22 12s-.457-3.518-1.37-5.072c-.866-1.507-2.051-2.692-3.558-3.558C15.518 2.457 13.827 2 12 2c-1.81 0-3.494.457-5.048 1.37-1.506.882-2.7 2.076-3.582 3.582C2.457 8.506 2 10.189 2 12c0 1.81.457 3.494 1.37 5.048.866 1.506 2.051 2.7 3.558 3.582C8.482 21.543 10.173 22 12 22zm.986-9.014h-1.972v-6.01h1.972v6.01zm0 4.038h-1.972v-2.02h1.972v2.02z" transform="translate(-335 -150) translate(0 137) translate(16 13) translate(319)"/>
                    </g>
                </g>
            </g>
        </g>
    </g>
</svg>
